<svg id="visual" viewBox="0 0 960 540" width="960" height="540" xmlns="http://www.w3.org/2000/svg" xmlns:xlink="http://www.w3.org/1999/xlink" version="1.1"><rect x="0" y="0" width="960" height="540" fill="#ffffff"></rect><defs><linearGradient id="grad1_0" x1="43.8%" y1="0%" x2="100%" y2="100%"><stop offset="14.444444444444446%" stop-color="#ffffff" stop-opacity="1"></stop><stop offset="85.55555555555554%" stop-color="#ffffff" stop-opacity="1"></stop></linearGradient></defs><defs><linearGradient id="grad2_0" x1="0%" y1="0%" x2="56.3%" y2="100%"><stop offset="14.444444444444446%" stop-color="#ffffff" stop-opacity="1"></stop><stop offset="85.55555555555554%" stop-color="#ffffff" stop-opacity="1"></stop></linearGradient></defs><g transform="translate(960, 0)"><path d="M0 270C-50.6 264.9 -101.3 259.8 -135 233.8C-168.7 207.8 -185.6 161 -205.2 118.5C-224.9 76 -247.5 38 -270 0L0 0Z" fill="#fff"></path></g><g transform="translate(0, 540)"><path d="M0 -270C52.1 -265.8 104.3 -261.5 135 -233.8C165.7 -206.1 175.1 -154.9 194 -112C212.9 -69.1 241.5 -34.6 270 0L0 0Z" fill="#2180D4"></path></g></svg>